<?xml version="1.0" encoding="UTF-8" standalone="no"?>
<!-- Created with Inkscape (http://www.inkscape.org/) -->

<svg
   width="208mm"
   height="44mm"
   viewBox="0 0 208 44"
   version="1.1"
   id="svg5"
   inkscape:version="1.1.2 (b8e25be833, 2022-02-05)"
   sodipodi:docname="logo itbank oficial.svg"
   xmlns:inkscape="http://www.inkscape.org/namespaces/inkscape"
   xmlns:sodipodi="http://sodipodi.sourceforge.net/DTD/sodipodi-0.dtd"
   xmlns="http://www.w3.org/2000/svg"
   xmlns:svg="http://www.w3.org/2000/svg">
  <sodipodi:namedview
     id="namedview7"
     pagecolor="#ffffff"
     bordercolor="#999999"
     borderopacity="1"
     inkscape:pageshadow="0"
     inkscape:pageopacity="0"
     inkscape:pagecheckerboard="0"
     inkscape:document-units="mm"
     showgrid="false"
     showguides="true"
     inkscape:zoom="1.0305625"
     inkscape:cx="513.79708"
     inkscape:cy="178.54327"
     inkscape:window-width="1920"
     inkscape:window-height="1007"
     inkscape:window-x="-9"
     inkscape:window-y="-9"
     inkscape:window-maximized="1"
     inkscape:current-layer="layer1"
     units="mm"
     height="296mm" />
  <defs
     id="defs2">
    <clipPath
       clipPathUnits="userSpaceOnUse"
       id="clipPath16097">
      <path
         id="path16099"
         style="fill:#ff0000;fill-opacity:1;fill-rule:nonzero;stroke:none"
         d="M 15.148438,675.20898 V 828.80859 H 679.18164 V 675.20898 Z m 83.324218,12.87891 c 0.911264,-0.0489 2.024804,0.4612 3.029294,1.77149 0.17053,0.22245 0.34119,0.44535 0.51172,0.66796 1.35458,1.8305 2.26025,2.99826 2.79883,5.35547 0.10057,0.44054 -0.004,0.90355 -0.008,1.35547 -0.017,2.22112 -0.0144,1.8577 -0.0488,3.8418 -0.0131,1.82645 -0.0406,3.65605 0.0781,5.48047 0.11823,1.817 0.23317,0.95166 0.18555,3.20507 -0.009,0.44701 -0.0864,0.88891 -0.12891,1.33399 -0.13454,0.72189 -0.23143,1.45185 -0.40234,2.16601 -0.17736,0.74117 -1.13607,3.43316 -1.30078,3.86524 -0.15386,0.40362 -0.89186,1.95121 -1.00195,2.36133 -0.10424,0.38831 -0.10001,0.79833 -0.15039,1.19726 -0.17242,0.65503 -0.29803,1.32407 -0.51758,1.96485 -1.10111,3.21343 -3.332973,6.16597 -5.498049,8.7207 -1.31681,1.55376 -2.630078,3.12359 -4.111328,4.52148 -0.785355,0.74117 -1.76662,1.24081 -2.650391,1.86133 -1.462404,0.68814 -2.859312,1.54175 -4.388671,2.06446 -0.796615,0.27363 -1.67033,0.20522 -2.507813,0.29101 -3.798383,0.38854 -7.656739,0.72059 -11.464844,0.25586 -0.954807,-0.1409 -1.916036,-0.24726 -2.865234,-0.42187 -1.242161,-0.22874 -2.447417,-0.62424 -3.681641,-0.89258 -1.384769,-0.301 -3.073434,-0.39629 -4.230468,-1.27344 0.476768,-0.10016 1.912492,-0.23577 1.429687,-0.30078 -0.617201,-0.0832 -1.230673,0.29056 -1.851562,0.24219 -1.581929,-0.12367 -2.577426,-1.88578 -4.205078,-1.91602 -0.714237,-0.41276 -1.465835,-0.76656 -2.142579,-1.23828 -0.38143,-0.26585 -0.677003,-0.63622 -1.011718,-0.95898 -2.042298,-1.96906 -4.106636,-3.94698 -5.88086,-6.16602 -1.149985,-1.38595 -2.462698,-2.61845 -3.398437,-4.17774 -0.892921,-1.24995 -1.749503,-2.52411 -2.660156,-3.76171 -1.408763,-1.91452 -1.780151,-2.15062 -2.970704,-4.53516 -0.160739,-0.32194 -0.177475,-0.69803 -0.265625,-1.04687 -0.09372,-0.56535 -0.205931,-1.12722 -0.28125,-1.69532 -0.06603,-0.49814 0.128532,-1.05001 -0.08594,-1.54101 0.0057,-0.97784 0.05365,-1.76049 0.412109,-2.68946 0.02933,-0.076 -0.02641,0.16855 0.0039,0.24414 0.0016,0.004 0.0042,0.008 0.0059,0.0117 0.09257,-0.90965 0.06996,-1.8458 0.367187,-2.70703 0.151543,-0.43907 2.030173,-1.21712 2.197266,-1.28515 2.468338,-1.00604 5.060927,-1.82897 7.740234,-1.95899 4.797317,-0.2327 5.337968,4.68016 0.53711,4.82227 -2.100325,0.0621 -4.113624,0.68943 -6.048828,1.46679 0.0075,0.0886 0.01252,0.17836 0.01367,0.26758 0.008,0.61247 -0.562781,1.06108 -0.378907,1.66992 0.197707,0.59664 -0.01314,1.25467 0.08789,1.85157 0.03311,0.19547 0.122214,0.3778 0.183594,0.5664 0.07102,0.27466 0.07278,0.57546 0.21289,0.82227 0.05128,0.0903 2.12034,2.78188 2.132813,2.80078 0.941393,1.27374 1.822669,2.5875 2.74414,3.875 0.511363,0.57895 0.843293,1.30006 1.324219,1.89844 0.373663,0.46488 0.188268,0.0981 0.517578,0.46093 0.442269,0.48707 0.864233,0.99069 1.296875,1.48633 1.675718,2.10796 3.640204,3.9763 5.576172,5.8418 0.320602,0.30894 0.600549,0.66776 0.96875,0.91797 0.324484,0.2205 0.71873,0.31505 1.078125,0.47265 1.136618,0.20588 2.055766,0.91299 3.013672,1.50196 0.04846,0.003 0.118273,0.006 0.15625,0.01 0.08689,0.008 0.253514,0.2345 0.177734,0.19141 -0.112393,-0.0641 -0.223061,-0.13297 -0.333984,-0.20117 -0.561988,-0.0371 -1.709434,-0.0637 -1.285156,0.0605 0.879817,0.25777 1.822168,0.21695 2.732422,0.32618 0.277096,0.17438 0.522197,0.41389 0.830078,0.52539 0.304826,0.11187 0.644755,0.0752 0.964844,0.12695 0.411982,0.0665 0.822567,0.1385 1.230468,0.22656 1.329207,0.28713 2.629328,0.70746 3.966797,0.95313 0.781436,0.14362 1.574162,0.2165 2.361328,0.32422 3.430492,0.39537 6.909036,0.0713 10.328125,-0.28321 0.800285,-0.0832 1.639339,-0.009 2.396485,-0.28125 0.992825,-0.35686 1.833748,-1.04538 2.75,-1.56836 0.67723,-0.49511 1.434976,-0.89427 2.03125,-1.48437 1.194565,-1.1822 2.244138,-2.50375 3.310547,-3.80274 1.755215,-2.138 3.804985,-4.63164 4.634765,-7.34179 0.12926,-0.42214 0.19639,-0.86064 0.294922,-1.29102 0.01134,-0.17892 -0.01412,-0.36401 0.0332,-0.53711 0.821084,-3.00321 0.480862,-1.43064 1.375,-3.77539 0.119762,-0.31408 0.984779,-2.80389 1.119141,-3.3789 0.120529,-0.51576 0.171796,-1.04573 0.257816,-1.56836 0.024,-0.30569 0.0724,-0.61145 0.0723,-0.91797 -7.6e-4,-1.69962 -0.0842,-0.8568 -0.17578,-2.26172 -0.130974,-2.01139 -0.118706,-4.01309 -0.105478,-6.02734 0.03451,-2.00391 0.0322,-1.65202 0.04883,-3.85352 0.0033,-0.44406 0.115698,-0.90173 0.0059,-1.33203 -0.04097,-0.16048 -1.796883,-2.38415 -1.84375,-2.44727 -0.153951,-0.20046 -0.306997,-0.40125 -0.460937,-0.60156 -1.91988,-2.49976 -0.921325,-4.63129 0.818359,-4.72461 z m -56.886718,18.32813 c -0.0012,0.002 -2.68e-4,0.0104 0.002,0.0254 0.02358,0.15833 0.05572,0.31555 0.08984,0.47265 0.01317,-0.0434 0.02331,-0.0877 0.03711,-0.13086 -0.03714,-0.0995 -0.120587,-0.37959 -0.128906,-0.36718 z" />
    </clipPath>
    <clipPath
       clipPathUnits="userSpaceOnUse"
       id="clipPath16107">
      <path
         id="path16109"
         style="fill:#ff0000;fill-opacity:1;fill-rule:nonzero;stroke:none;stroke-width:0.264583"
         d="m 19.808978,213.16996 v 2.93264 h 7.925614 c 0.03362,-0.0705 0.07085,-0.12499 0.186552,-0.4284 0.03169,-0.0831 0.260556,-0.74186 0.296106,-0.894 0.03189,-0.13646 0.04545,-0.27669 0.06821,-0.41496 0.0064,-0.0809 0.01916,-0.16178 0.01913,-0.24288 -2.01e-4,-0.4497 -0.02228,-0.2267 -0.04651,-0.59842 -0.0077,-0.11805 -0.0132,-0.23611 -0.01757,-0.35398 z m 9.715169,0 c 0.0031,0.0727 0.0056,0.14542 0.01035,0.21807 0.03128,0.48075 0.06169,0.2518 0.04909,0.84801 -0.0024,0.11827 -0.02286,0.23519 -0.03411,0.35295 -0.0356,0.191 -0.06123,0.38414 -0.106452,0.57309 -0.04291,0.17933 -0.244777,0.74988 -0.314709,0.94052 h 51.897608 v -2.93264 z" />
    </clipPath>
    <clipPath
       clipPathUnits="userSpaceOnUse"
       id="clipPath16117">
      <path
         id="path16119"
         style="fill:#ff0000;fill-opacity:1;fill-rule:nonzero;stroke:none"
         d="M 22.021484,675.86328 V 799.33594 H 647.08203 V 675.86328 Z m 76.451172,12.22461 c 0.911264,-0.0489 2.024804,0.4612 3.029294,1.77149 0.17053,0.22245 0.34119,0.44535 0.51172,0.66796 1.35458,1.8305 2.26025,2.99826 2.79883,5.35547 0.10057,0.44054 -0.004,0.90355 -0.008,1.35547 -0.017,2.22112 -0.0144,1.8577 -0.0488,3.8418 -0.0131,1.82645 -0.0406,3.65605 0.0781,5.48047 0.11823,1.817 0.23317,0.95166 0.18555,3.20507 -0.009,0.44701 -0.0864,0.88891 -0.12891,1.33399 -0.13454,0.72189 -0.23143,1.45185 -0.40234,2.16601 -0.17736,0.74117 -1.13607,3.43316 -1.30078,3.86524 -0.15386,0.40362 -0.89186,1.95121 -1.00195,2.36133 -0.10424,0.38831 -0.10001,0.79833 -0.15039,1.19726 -0.17242,0.65503 -0.29803,1.32407 -0.51758,1.96485 -1.10111,3.21343 -3.332973,6.16597 -5.498049,8.7207 -1.31681,1.55376 -2.630078,3.12359 -4.111328,4.52148 -0.785355,0.74117 -1.76662,1.24081 -2.650391,1.86133 -1.462404,0.68814 -2.859312,1.54175 -4.388671,2.06446 -0.796615,0.27363 -1.67033,0.20522 -2.507813,0.29101 -3.798383,0.38854 -7.656739,0.72059 -11.464844,0.25586 -0.954807,-0.1409 -1.916036,-0.24726 -2.865234,-0.42187 -1.242161,-0.22874 -2.447417,-0.62424 -3.681641,-0.89258 -1.384769,-0.301 -3.073434,-0.39629 -4.230468,-1.27344 0.476768,-0.10016 1.912492,-0.23577 1.429687,-0.30078 -0.617201,-0.0832 -1.230673,0.29056 -1.851562,0.24219 -1.581929,-0.12367 -2.577426,-1.88578 -4.205078,-1.91602 -0.714237,-0.41276 -1.465835,-0.76656 -2.142579,-1.23828 -0.38143,-0.26585 -0.677003,-0.63622 -1.011718,-0.95898 -2.042298,-1.96906 -4.106636,-3.94698 -5.88086,-6.16602 -1.149985,-1.38595 -2.462698,-2.61845 -3.398437,-4.17774 -0.892921,-1.24995 -1.749503,-2.52411 -2.660156,-3.76171 -1.408763,-1.91452 -1.780151,-2.15062 -2.970704,-4.53516 -0.160739,-0.32194 -0.177475,-0.69803 -0.265625,-1.04687 -0.09372,-0.56535 -0.205931,-1.12722 -0.28125,-1.69532 -0.06603,-0.49814 0.128532,-1.05001 -0.08594,-1.54101 0.0057,-0.97784 0.05365,-1.76049 0.412109,-2.68946 0.02933,-0.076 -0.02641,0.16855 0.0039,0.24414 0.0016,0.004 0.0042,0.008 0.0059,0.0117 0.09257,-0.90965 0.06996,-1.8458 0.367187,-2.70703 0.151543,-0.43907 2.030173,-1.21712 2.197266,-1.28515 2.468338,-1.00604 5.060927,-1.82897 7.740234,-1.95899 4.797317,-0.2327 5.337968,4.68016 0.53711,4.82227 -2.100325,0.0621 -4.113624,0.68943 -6.048828,1.46679 0.0075,0.0886 0.01252,0.17836 0.01367,0.26758 0.008,0.61247 -0.562781,1.06108 -0.378907,1.66992 0.197707,0.59664 -0.01314,1.25467 0.08789,1.85157 0.03311,0.19547 0.122214,0.3778 0.183594,0.5664 0.07102,0.27466 0.07278,0.57546 0.21289,0.82227 0.05128,0.0903 2.12034,2.78188 2.132813,2.80078 0.941393,1.27374 1.822669,2.5875 2.74414,3.875 0.511363,0.57895 0.843293,1.30006 1.324219,1.89844 0.373663,0.46488 0.188268,0.0981 0.517578,0.46093 0.442269,0.48707 0.864233,0.99069 1.296875,1.48633 1.675718,2.10796 3.640204,3.9763 5.576172,5.8418 0.320602,0.30894 0.600549,0.66776 0.96875,0.91797 0.324484,0.2205 0.71873,0.31505 1.078125,0.47265 1.136618,0.20588 2.055766,0.91299 3.013672,1.50196 0.04846,0.003 0.118273,0.006 0.15625,0.01 0.08689,0.008 0.253514,0.2345 0.177734,0.19141 -0.112393,-0.0641 -0.223061,-0.13297 -0.333984,-0.20117 -0.561988,-0.0371 -1.709434,-0.0637 -1.285156,0.0605 0.879817,0.25777 1.822168,0.21695 2.732422,0.32618 0.277096,0.17438 0.522197,0.41389 0.830078,0.52539 0.304826,0.11187 0.644755,0.0752 0.964844,0.12695 0.411982,0.0665 0.822567,0.1385 1.230468,0.22656 1.329207,0.28713 2.629328,0.70746 3.966797,0.95313 0.781436,0.14362 1.574162,0.2165 2.361328,0.32422 3.430492,0.39537 6.909036,0.0713 10.328125,-0.28321 0.800285,-0.0832 1.639339,-0.009 2.396485,-0.28125 0.992825,-0.35686 1.833748,-1.04538 2.75,-1.56836 0.67723,-0.49511 1.434976,-0.89427 2.03125,-1.48437 1.194565,-1.1822 2.244138,-2.50375 3.310547,-3.80274 1.755215,-2.138 3.804985,-4.63164 4.634765,-7.34179 0.12926,-0.42214 0.19639,-0.86064 0.294922,-1.29102 0.01134,-0.17892 -0.01412,-0.36401 0.0332,-0.53711 0.821084,-3.00321 0.480862,-1.43064 1.375,-3.77539 0.119762,-0.31408 0.984779,-2.80389 1.119141,-3.3789 0.120529,-0.51576 0.171796,-1.04573 0.257816,-1.56836 0.024,-0.30569 0.0724,-0.61145 0.0723,-0.91797 -7.6e-4,-1.69962 -0.0842,-0.8568 -0.17578,-2.26172 -0.130974,-2.01139 -0.118706,-4.01309 -0.105478,-6.02734 0.03451,-2.00391 0.0322,-1.65202 0.04883,-3.85352 0.0033,-0.44406 0.115698,-0.90173 0.0059,-1.33203 -0.04097,-0.16048 -1.796883,-2.38415 -1.84375,-2.44727 -0.153951,-0.20046 -0.306997,-0.40125 -0.460937,-0.60156 -1.91988,-2.49976 -0.921325,-4.63129 0.818359,-4.72461 z m -56.886718,18.32813 c -0.0012,0.002 -2.68e-4,0.0104 0.002,0.0254 0.02358,0.15833 0.05572,0.31555 0.08984,0.47265 0.01317,-0.0434 0.02331,-0.0877 0.03711,-0.13086 -0.03714,-0.0995 -0.120587,-0.37959 -0.128906,-0.36718 z" />
    </clipPath>
    <clipPath
       clipPathUnits="userSpaceOnUse"
       id="clipPath16127">
      <path
         id="path16129"
         style="fill:#ff0000;fill-opacity:1;fill-rule:nonzero;stroke:none"
         d="M 22.021484,704.78906 V 827.8457 H 503.49414 V 704.78906 H 104.76172 c 0.0132,0.59076 0.0339,1.18153 0.0723,1.77149 0.11823,1.817 0.23317,0.95166 0.18555,3.20507 -0.009,0.44701 -0.0864,0.88891 -0.12891,1.33399 -0.13454,0.72189 -0.23143,1.45185 -0.40234,2.16601 -0.17736,0.74117 -1.13607,3.43316 -1.30078,3.86524 -0.15386,0.40362 -0.89186,1.95121 -1.00195,2.36133 -0.10424,0.38831 -0.10001,0.79833 -0.15039,1.19726 -0.17242,0.65503 -0.29803,1.32407 -0.51758,1.96485 -1.10111,3.21343 -3.332973,6.16597 -5.498049,8.7207 -1.31681,1.55376 -2.630078,3.12359 -4.111328,4.52148 -0.785355,0.74117 -1.76662,1.24081 -2.650391,1.86133 -1.462404,0.68814 -2.859312,1.54175 -4.388671,2.06446 -0.796615,0.27363 -1.67033,0.20522 -2.507813,0.29101 -3.798383,0.38854 -7.656739,0.72059 -11.464844,0.25586 -0.954807,-0.1409 -1.916036,-0.24726 -2.865234,-0.42187 -1.242161,-0.22874 -2.447417,-0.62424 -3.681641,-0.89258 -1.384769,-0.301 -3.073434,-0.39629 -4.230468,-1.27344 0.476768,-0.10016 1.912492,-0.23577 1.429687,-0.30078 -0.617201,-0.0832 -1.230673,0.29056 -1.851562,0.24219 -1.581929,-0.12367 -2.577426,-1.88578 -4.205078,-1.91602 -0.714237,-0.41276 -1.465835,-0.76656 -2.142579,-1.23828 -0.38143,-0.26585 -0.677003,-0.63622 -1.011718,-0.95898 -2.042298,-1.96906 -4.106636,-3.94698 -5.88086,-6.16602 -1.149985,-1.38595 -2.462698,-2.61845 -3.398437,-4.17774 -0.892921,-1.24995 -1.749503,-2.52411 -2.660156,-3.76171 -1.408763,-1.91452 -1.780151,-2.15062 -2.970704,-4.53516 -0.160739,-0.32194 -0.177475,-0.69803 -0.265625,-1.04687 -0.09372,-0.56535 -0.205931,-1.12722 -0.28125,-1.69532 -0.06603,-0.49814 0.128532,-1.05001 -0.08594,-1.54101 0.0057,-0.97784 0.05365,-1.76049 0.412109,-2.68946 0.02933,-0.076 -0.02641,0.16855 0.0039,0.24414 0.0016,0.004 0.0042,0.008 0.0059,0.0117 0.09257,-0.90965 0.06996,-1.8458 0.367187,-2.70703 0.07338,-0.21261 0.555947,-0.50339 1.048828,-0.75586 z m 29.365235,0 c -0.0081,1.14555 -1.070633,2.26716 -3.328125,2.33399 -2.100325,0.0621 -4.113624,0.68943 -6.048828,1.46679 0.0075,0.0886 0.01252,0.17836 0.01367,0.26758 0.008,0.61247 -0.562781,1.06108 -0.378907,1.66992 0.197707,0.59664 -0.01314,1.25467 0.08789,1.85157 0.03311,0.19547 0.122214,0.3778 0.183594,0.5664 0.07102,0.27466 0.07278,0.57546 0.21289,0.82227 0.05128,0.0903 2.12034,2.78188 2.132813,2.80078 0.941393,1.27374 1.822669,2.5875 2.74414,3.875 0.511363,0.57895 0.843293,1.30006 1.324219,1.89844 0.373663,0.46488 0.188268,0.0981 0.517578,0.46093 0.442269,0.48707 0.864233,0.99069 1.296875,1.48633 1.675718,2.10796 3.640204,3.9763 5.576172,5.8418 0.320602,0.30894 0.600549,0.66776 0.96875,0.91797 0.324484,0.2205 0.71873,0.31505 1.078125,0.47265 1.136618,0.20588 2.055766,0.91299 3.013672,1.50196 0.04846,0.003 0.118273,0.006 0.15625,0.01 0.08689,0.008 0.253514,0.2345 0.177734,0.19141 -0.112393,-0.0641 -0.223061,-0.13297 -0.333984,-0.20117 -0.561988,-0.0371 -1.709434,-0.0637 -1.285156,0.0605 0.879817,0.25777 1.822168,0.21695 2.732422,0.32618 0.277096,0.17438 0.522197,0.41389 0.830078,0.52539 0.304826,0.11187 0.644755,0.0752 0.964844,0.12695 0.411982,0.0665 0.822567,0.1385 1.230468,0.22656 1.329207,0.28713 2.629328,0.70746 3.966797,0.95313 0.781436,0.14362 1.574162,0.2165 2.361328,0.32422 3.430492,0.39537 6.909036,0.0713 10.328125,-0.28321 0.800285,-0.0832 1.639339,-0.009 2.396485,-0.28125 0.992825,-0.35686 1.833748,-1.04538 2.75,-1.56836 0.67723,-0.49511 1.434976,-0.89427 2.03125,-1.48437 1.194565,-1.1822 2.244138,-2.50375 3.310547,-3.80274 1.755215,-2.138 3.804985,-4.63164 4.634765,-7.34179 0.12926,-0.42214 0.19639,-0.86064 0.294922,-1.29102 0.01134,-0.17892 -0.01412,-0.36401 0.0332,-0.53711 0.821084,-3.00321 0.480862,-1.43064 1.375,-3.77539 0.119762,-0.31408 0.984779,-2.80389 1.119141,-3.3789 0.120529,-0.51576 0.171797,-1.04573 0.257817,-1.56836 0.024,-0.30569 0.0724,-0.61145 0.0723,-0.91797 -7.6e-4,-1.69962 -0.0842,-0.8568 -0.17578,-2.26172 -0.04967,-0.76277 -0.07558,-1.52397 -0.0918,-2.28516 z m -9.800781,1.62696 c -0.0012,0.002 -2.68e-4,0.0104 0.002,0.0254 0.02358,0.15833 0.05572,0.31555 0.08984,0.47265 0.01317,-0.0434 0.02331,-0.0877 0.03711,-0.13086 -0.03714,-0.0995 -0.120587,-0.37959 -0.128906,-0.36718 z" />
    </clipPath>
  </defs>
  <g
     inkscape:label="Capa 1"
     inkscape:groupmode="layer"
     id="layer1">
    <g
       id="g16561"
       transform="matrix(1.0351323,0,0,1,-2.2605548,-115.4032)">
      <path
         style="fill:#575757;fill-opacity:1;stroke-width:0.294848"
         d="m 123.01959,137.26158 v -22.03297 l 4.14129,0.0852 4.14129,0.0853 11.82154,21.40866 c 6.50186,11.77477 11.94525,21.65125 12.09642,21.94774 0.25466,0.49941 0.0406,0.53861 -2.91005,0.53297 l -3.18493,-0.007 -8.89,-15.70095 c -4.8895,-8.63552 -8.98525,-15.70226 -9.10167,-15.70386 -0.11642,-0.001 -0.21167,7.06656 -0.21167,15.70704 v 15.70995 h -3.95111 -3.95111 z m 46.28445,0.009 v -22.02475 h 4.09222 4.09222 v 9.79573 9.79575 l 1.45187,1.77797 1.45187,1.77798 -1.45187,1.6046 -1.45187,1.60462 v 8.84642 8.84642 h -4.09222 -4.09222 z m 22.57777,12.78223 c -7.46358,-11.35914 -11.1299,-17.72773 -10.63786,-18.47854 0.18521,-0.28262 2.94025,-4.07038 6.12231,-8.41726 l 5.78555,-7.90339 4.86834,-0.004 c 2.67758,-0.002 4.86833,0.056 4.86833,0.12904 0,0.0731 -3.43084,4.75145 -7.6241,10.3963 -4.19325,5.64484 -7.5905,10.43287 -7.54944,10.64006 0.0411,0.20719 3.50365,5.25555 7.69465,11.21859 4.191,5.96306 7.72156,11.02634 7.84569,11.25175 0.18176,0.33008 -0.31261,0.40911 -2.54,0.40602 l -2.76569,-0.004 -6.06778,-9.23482 z M 2.2284859,145.10949 c 0,-11.69965 0.06099,-13.83838 0.3887103,-13.63069 0.2137904,0.13548 2.1790457,1.49389 4.3672333,3.01868 l 3.9785235,2.77234 0.0072,10.85835 0.0072,10.85835 H 6.6029305 2.2284859 Z m 22.8599991,8.01484 v -5.8622 l 1.481666,1.04222 c 0.814917,0.57321 2.719917,1.91043 4.233333,2.9716 l 2.751667,1.92939 v 2.8906 2.89058 h -4.233333 -4.233333 z m 22.577777,-9.89356 c 0,-13.84624 0.05084,-15.74049 0.411863,-15.34512 0.226526,0.24809 2.626377,3.2234 5.333004,6.61183 l 4.921143,6.16076 -1.029118,0.15402 -1.029115,0.15402 v 5.08263 5.08264 l 5.221111,-0.003 5.221111,-0.003 2.584789,3.23748 2.584788,3.23748 -1.597011,0.59269 c -1.436124,0.53299 -2.656092,0.60485 -12.109788,0.7133 l -10.512777,0.12061 v -15.79618 z m 31.044443,15.58542 c 0,-0.29937 12.748612,-33.85847 12.953387,-34.09815 0.108196,-0.12662 1.009433,1.32886 2.002751,3.23441 0.993315,1.90555 2.023167,3.88049 2.288567,4.38876 0.47748,0.91443 0.46693,0.96765 -1.006553,5.08263 l -1.489081,4.15852 3.724404,0.0854 3.7244,0.0854 1.95384,3.74361 c 1.07461,2.05899 1.99617,3.85726 2.04791,3.99615 0.0517,0.1389 -3.13389,0.25255 -7.07919,0.25255 h -7.173258 l -1.636747,4.62057 -1.636751,4.62057 h -4.336838 c -2.385263,0 -4.336841,-0.0766 -4.336841,-0.17033 z M 111.6034,157.9854 c -9.99187,-26.27422 -15.95936,-42.07452 -15.95936,-42.2561 0,-0.0969 1.63061,-0.17618 3.623582,-0.17618 3.542118,0 3.630468,0.0165 3.929498,0.7328 0.36677,0.87861 14.70049,36.90143 16.04093,40.31331 l 0.93791,2.38729 h -4.09592 -4.09591 z m 42.80684,-10.49213 -4.01509,-9.02895 V 126.8547 115.24508 h 4.09222 4.09222 v 20.63857 c 0,11.35121 -0.0347,20.63856 -0.0771,20.63856 -0.0424,0 -1.88392,-4.06302 -4.09222,-9.02894 z m -82.330614,4.93333 c -1.693082,-2.58876 -2.229183,-3.64288 -2.146703,-4.22098 0.309936,-2.17233 0.155524,-3.98134 -0.410439,-4.80852 -0.723211,-1.05702 -2.310333,-1.97545 -3.787402,-2.19168 -1.069366,-0.15656 -1.256459,-0.36216 -3.687708,-4.05251 l -2.561186,-3.88759 2.676525,-0.19455 c 3.12348,-0.22705 4.518798,-0.84285 5.492022,-2.42377 0.551891,-0.89651 0.644702,-1.37458 0.550926,-2.83781 -0.129769,-2.02482 -0.632277,-2.81379 -2.336067,-3.66774 -0.935801,-0.46903 -1.862917,-0.56696 -5.420413,-0.57257 l -4.291525,-0.007 -0.08292,2.20783 -0.08292,2.20782 -3.81,-5.79472 c -2.0955,-3.18711 -3.917834,-5.99489 -4.049632,-6.23953 -0.207549,-0.38522 1.096086,-0.42722 9.736666,-0.31365 11.124582,0.14622 12.248837,0.3224 15.186115,2.37965 2.610719,1.82855 3.790431,4.45534 3.807957,8.47897 0.0091,2.08947 -0.109531,2.73205 -0.779924,4.22457 -0.907759,2.02099 -2.756803,3.9422 -4.582947,4.76183 -0.689644,0.30953 -1.254374,0.65132 -1.254955,0.75954 -5.64e-4,0.10816 0.411692,0.28273 0.916164,0.38784 2.680047,0.55839 5.501386,2.92561 6.74287,5.65755 0.574249,1.26367 0.663101,1.9121 0.664196,4.84724 0.0011,2.95605 -0.08232,3.55937 -0.653782,4.7282 -0.7495,1.53297 -2.789781,4.058 -3.26145,4.03634 -0.174258,-0.008 -1.332321,-1.56725 -2.573469,-3.465 z m -42.757808,-7.81147 -4.092222,-3.68813 -0.07502,-8.52843 -0.07502,-8.52842 h -5.498868 -5.498869 v -4.15852 -4.15851 h 12.090533 12.090532 l 3.260093,4.08151 3.260089,4.0815 -5.610724,0.0834 -5.610724,0.0834 -0.07379,12.2102 -0.07379,12.21019 z M 6.3999865,124.07834 2.245931,120.32772 l -0.00872,-2.38731 -0.00872,-2.38729 h 4.3744445 4.3744435 v 6.16077 c 0,3.38842 -0.09525,6.15048 -0.211667,6.13792 -0.116416,-0.0126 -2.0809907,-1.71063 -4.3657205,-3.77347 z"
         id="path2431" />
      <path
         style="fill:#02568a;fill-opacity:1;stroke:#000000;stroke-width:0.268222;stroke-opacity:0.0163934"
         d="m 29.203812,144.29345 -3.915236,-3.54636 v -8.53609 -8.53609 h -5.519841 -5.519842 v -4.06321 -4.06322 H 26.15279 38.056688 l 3.247348,4.06322 3.247353,4.06321 H 39.02777 33.504153 l -0.03526,4.13328 c -0.01939,2.27329 -0.106042,7.7104 -0.192553,12.08245 l -0.157292,7.94918 z"
         id="path14243" />
      <path
         style="fill:#02568a;fill-opacity:1;stroke:#000000;stroke-width:0.268222;stroke-opacity:0.0163934"
         d="m 25.288576,153.37841 c 0,-3.08244 0.08665,-5.59642 0.192554,-5.58662 0.105902,0.01 1.925523,1.25108 4.043603,2.75841 l 3.851053,2.74059 0.07317,2.84603 0.07316,2.84603 h -4.116768 -4.116772 z"
         id="path14282" />
      <path
         style="fill:#02568a;fill-opacity:1;stroke:#000000;stroke-width:0.268222;stroke-opacity:0.0163934"
         d="m 2.4389997,145.39209 c 0,-7.47491 0.086649,-13.59014 0.1925527,-13.58939 0.105904,8.7e-4 1.9832917,1.24407 4.1719729,2.76293 l 3.9794207,2.76158 0.0672,10.82782 0.0672,10.82782 H 6.6781718 2.4389997 Z"
         id="path14321" />
      <path
         style="fill:#02568a;fill-opacity:1;stroke:#000000;stroke-width:0.268222;stroke-opacity:0.0163934"
         d="m 6.5467888,123.97804 -3.9794206,-3.56905 -0.07418,-2.43025 -0.07418,-2.43026 h 4.2461529 4.2461529 l -0.03038,5.25416 c -0.01671,2.88979 -0.103356,5.58947 -0.192553,5.9993 -0.158713,0.72923 -0.247168,0.66892 -4.1415976,-2.8239 z"
         id="path14360" />
      <path
         style="fill:#02568a;fill-opacity:1;stroke:#000000;stroke-width:0.268222;stroke-opacity:0.0163934"
         d="m 47.881416,143.47705 v -15.44596 l 0.629343,0.69418 c 1.835097,2.02418 9.329833,11.63083 9.222203,11.82091 -0.06922,0.12224 -0.465627,0.22226 -0.880909,0.22226 h -0.75506 v 5.1841 5.1841 h 5.226465 5.226463 l 2.479844,3.14226 2.479844,3.14226 -0.639098,0.36549 c -1.128832,0.64556 -4.425651,0.88744 -13.810755,1.01329 l -9.17834,0.12308 z"
         id="path14399" />
      <path
         style="fill:#02568a;fill-opacity:1;stroke:#000000;stroke-width:0.268222;stroke-opacity:0.0163934"
         d="m 72.860196,153.27125 c -2.608945,-3.83387 -2.681901,-4.01899 -2.729301,-6.92511 l -0.04175,-2.55953 -1.071846,-1.03809 c -0.973957,-0.94329 -2.516005,-1.69986 -3.464655,-1.69986 -0.203028,0 -0.726554,-0.40982 -1.163394,-0.91072 -1.162246,-1.33267 -4.457295,-6.40015 -4.319656,-6.64323 0.0648,-0.11444 1.168199,-0.28235 2.451994,-0.37313 4.092289,-0.28938 5.779714,-1.70243 5.759519,-4.82301 -0.0141,-2.17739 -0.492911,-3.1902 -1.916084,-4.05296 -1.083691,-0.65696 -1.428705,-0.70596 -5.672119,-0.80558 l -4.518244,-0.10607 -0.231389,1.97593 -0.231386,1.97594 -3.594317,-5.49613 c -1.976874,-3.02287 -3.636949,-5.61422 -3.689056,-5.75856 -0.164153,-0.45471 19.338231,-0.0642 21.056647,0.4216 2.834709,0.80142 5.204286,2.75765 6.299248,5.20039 0.590264,1.31682 0.726281,2.03936 0.809474,4.30008 0.08989,2.44265 0.03452,2.8734 -0.547817,4.26174 -0.863105,2.05773 -2.407965,3.83266 -4.287592,4.92613 -0.847526,0.49305 -1.540959,0.99213 -1.540959,1.10907 0,0.11694 0.65869,0.43924 1.463754,0.71623 2.584738,0.88929 4.89186,2.90418 6.024745,5.26159 0.479843,0.99851 0.595183,1.76241 0.679712,4.50167 0.09567,3.10047 0.06185,3.38728 -0.561851,4.76377 -0.735621,1.6235 -2.600573,4.12881 -3.069256,4.12312 -0.165521,-0.002 -1.018011,-1.05738 -1.894425,-2.34528 z"
         id="path14438" />
      <path
         style="fill:#02568a;fill-opacity:1;stroke:#000000;stroke-width:0.268222;stroke-opacity:0.0163934"
         d="m 80.679544,158.7797 c -0.953135,-0.0565 -1.732973,-0.14868 -1.732973,-0.2049 0,-0.0562 1.830585,-4.93682 4.067968,-10.84579 8.595437,-22.70068 8.579403,-22.66068 8.948283,-22.32653 0.188706,0.17094 1.218107,1.9906 2.287553,4.0437 2.23398,4.28873 2.213202,3.3367 0.194783,8.92446 -0.609232,1.68659 -1.053594,3.12558 -0.987467,3.19775 0.06612,0.0722 1.764792,0.20544 3.774816,0.29614 l 3.654583,0.16491 1.875,3.61033 c 1.03126,1.98569 1.82955,3.65996 1.77398,3.72061 -0.0556,0.0606 -3.24543,0.20139 -7.088587,0.31276 l -6.987558,0.2025 -1.593221,4.48355 -1.59322,4.48355 -2.430483,0.0198 c -1.336768,0.0109 -3.210322,-0.0264 -4.163457,-0.0829 z"
         id="path14477" />
      <path
         style="fill:#02568a;fill-opacity:1;stroke:#000000;stroke-width:0.268222;stroke-opacity:0.0163934"
         d="M 108.33607,148.96492 C 99.032562,124.43655 95.887434,116.01963 95.985494,115.9126 c 0.205716,-0.22453 6.642226,-0.12884 6.844746,0.10176 0.15739,0.17922 14.87769,36.98555 16.79317,41.98928 l 0.37485,0.97921 h -3.93122 -3.93122 z"
         id="path14516" />
      <path
         style="fill:#02568a;fill-opacity:1;stroke:#000000;stroke-width:0.268222;stroke-opacity:0.0163934"
         d="M 123.1053,137.27959 V 115.2961 l 4.04361,0.1673 c 2.50035,0.10345 4.11447,0.28529 4.22928,0.47647 0.10212,0.17004 5.48374,9.89275 11.95914,21.60602 l 11.77346,21.29685 -0.73661,0.22092 c -0.40513,0.1215 -1.73015,0.18455 -2.94448,0.14011 l -2.20789,-0.0808 -2.06297,-3.64289 c -5.74145,-10.13849 -14.4573,-25.36589 -15.14621,-26.46184 -0.68569,-1.09081 -0.80428,-1.17603 -0.97489,-0.70055 -0.10684,0.29773 -0.20236,7.38225 -0.21229,15.74336 l -0.018,15.20203 h -3.85106 -3.85105 z"
         id="path14555" />
      <path
         style="fill:#02568a;fill-opacity:1;stroke:#000000;stroke-width:0.268222;stroke-opacity:0.0163934"
         d="m 154.36301,146.98576 -3.78687,-8.46608 v -11.62571 -11.62571 h 3.97942 3.97942 l -0.0225,18.7048 c -0.0124,10.28764 -0.099,19.32894 -0.19255,20.09179 l -0.17006,1.38699 z"
         id="path14594" />
      <path
         style="fill:#02568a;fill-opacity:1;stroke:#000000;stroke-width:0.268222;stroke-opacity:0.0163934"
         d="m 169.31793,137.26567 v -21.99741 h 3.97942 3.97942 v 9.77241 9.77241 l 1.43412,1.75427 1.43412,1.75427 -1.43412,1.58181 -1.43412,1.58181 v 8.88892 8.88891 h -3.97942 -3.97942 z"
         id="path14633" />
      <path
         style="fill:#02568a;fill-opacity:1;stroke:#000000;stroke-width:0.268222;stroke-opacity:0.0163934"
         d="m 193.41173,152.07363 c -8.28183,-12.6544 -11.76105,-18.48975 -11.85359,-19.8808 -0.0334,-0.50261 1.49289,-2.79529 5.85973,-8.80186 l 5.90495,-8.12221 3.46595,0.0205 c 1.90627,0.0113 3.97366,0.10575 4.59421,0.20992 l 1.12827,0.18939 -5.40824,7.32279 c -2.97453,4.02754 -6.34824,8.67286 -7.49714,10.32295 l -2.08891,3.00015 0.43915,0.74582 c 0.24153,0.41019 3.72422,5.45296 7.7393,11.20615 4.01508,5.75319 7.22275,10.54498 7.12815,10.64843 -0.0946,0.10344 -1.18455,0.23142 -2.42212,0.28441 l -2.25011,0.0963 z"
         id="path14672" />
    </g>
  </g>
</svg>
